<svg width="32" height="32" viewBox="0 0 32 32" fill="none" xmlns="http://www.w3.org/2000/svg">
  <!-- Neural network nodes -->
  <circle cx="16" cy="8" r="2.5" fill="#0066ff"/>
  <circle cx="8" cy="16" r="2.5" fill="#0066ff"/>
  <circle cx="24" cy="16" r="2.5" fill="#0066ff"/>
  <circle cx="12" cy="24" r="2.5" fill="#0066ff"/>
  <circle cx="20" cy="24" r="2.5" fill="#0066ff"/>
  
  <!-- Connections -->
  <line x1="16" y1="8" x2="8" y2="16" stroke="#0066ff" stroke-width="1.5" opacity="0.6"/>
  <line x1="16" y1="8" x2="24" y2="16" stroke="#0066ff" stroke-width="1.5" opacity="0.6"/>
  <line x1="8" y1="16" x2="12" y2="24" stroke="#0066ff" stroke-width="1.5" opacity="0.6"/>
  <line x1="8" y1="16" x2="20" y2="24" stroke="#0066ff" stroke-width="1.5" opacity="0.6"/>
  <line x1="24" y1="16" x2="12" y2="24" stroke="#0066ff" stroke-width="1.5" opacity="0.6"/>
  <line x1="24" y1="16" x2="20" y2="24" stroke="#0066ff" stroke-width="1.5" opacity="0.6"/>
  
  <!-- Brain contour suggestion -->
  <path d="M16 4 C 8 4, 4 10, 4 16 C 4 22, 8 28, 16 28 C 24 28, 28 22, 28 16 C 28 10, 24 4, 16 4" 
        stroke="#0066ff" stroke-width="1" fill="none" opacity="0.3"/>
</svg>
